<?xml version="1.0" encoding="UTF-8"?>
<svg version="1.1" xmlns="http://www.w3.org/2000/svg" viewBox="380 340 280 210" width="280" height="210">
<path d="M0 0 C7.70185 -0.1394 15.40357 -0.24582 23.1064 -0.31087 C26.68377 -0.34211 30.26028 -0.38442 33.83716 -0.45264 C37.29317 -0.51813 40.74835 -0.55377 44.20494 -0.56926 C46.15656 -0.58565 48.10786 -0.63244 50.05898 -0.67978 C60.00801 -0.68353 60.00801 -0.68353 63.83643 2.03003 C69.08682 7.595 72.1174 15.28777 75.42578 22.10547 C76.21989 23.71121 77.01551 25.3162 77.81255 26.92049 C79.90567 31.14284 81.97981 35.37424 84.04956 39.60809 C86.12643 43.84985 88.2185 48.08408 90.31055 52.31836 C91.12795 53.973 91.94536 55.62763 92.76276 57.28227 C92.9625 57.68654 92.9625 57.68654 93.9733 59.73238 C95.17155 62.1594 96.36767 64.58745 97.56342 67.0157 C102.162 76.34573 106.85989 85.60776 111.76147 94.78296 C115.73343 102.22451 119.51336 109.7661 123.29932 117.30347 C124.19751 119.08811 125.09932 120.87094 126.00439 122.6521 C127.33619 125.27336 128.65755 127.89964 129.97656 130.52734 C130.38267 131.32205 130.78877 132.11675 131.20718 132.93553 C131.57532 133.67473 131.94346 134.41394 132.32275 135.17554 C132.48532 135.49774 132.48532 135.49774 133.30801 137.12828 C134 139 134 139 134 143 C131.30564 144.34718 129.17772 144.15701 126.16089 144.19287 C124.93589 144.20893 123.71089 144.225 122.44878 144.24155 C121.10518 144.25303 119.76158 144.26364 118.41797 144.27344 C117.74202 144.27876 117.06608 144.28408 116.36965 144.28957 C112.79129 144.31629 109.21296 144.33567 105.63452 144.3501 C102.6749 144.36343 99.71596 144.39128 96.75659 144.43213 C93.18156 144.48147 89.60715 144.50622 86.03179 144.51332 C84.67102 144.52003 83.31025 144.53525 81.94967 144.55922 C71.1063 144.73934 71.1063 144.73934 66.85791 141.90015 C64.80756 138.6996 62.93426 135.49842 61.29297 132.07422 C60.96388 131.40897 60.63479 130.74371 60.29573 130.0583 C59.25008 127.93925 58.2185 125.81371 57.1875 123.6875 C56.50811 122.30357 55.82777 120.92011 55.14648 119.53711 C53.77439 116.74933 52.40764 113.95901 51.04419 111.16699 C49.07331 107.1387 47.06747 103.12857 45.05469 99.12109 C42.21538 93.46115 39.41891 87.78178 36.65234 82.08594 C36.27655 81.31248 35.90075 80.53902 35.51357 79.74213 C33.90034 76.42034 32.28797 73.09814 30.67743 69.77505 C25.39148 58.87571 20.02021 48.02704 14.51172 37.23828 C13.43673 35.12396 12.36194 33.00954 11.28735 30.89502 C9.71348 27.79862 8.13435 24.70556 6.53732 21.62103 C5.0552 18.75815 3.59236 15.88615 2.13281 13.01172 C1.90784 12.584 1.90784 12.584 0.76933 10.41951 C0.37253 9.62969 -0.02428 8.83987 -0.43311 8.02612 C-0.60946 7.6838 -0.60946 7.6838 -1.50192 5.95146 C-2 4 -2 4 -1.09793 1.74837 C-0.73561 1.17141 -0.3733 0.59444 0 0 Z " fill="#1C2136" transform="translate(410,374)"/>
<path d="M0 0 C1.19441 -0.00615 2.38882 -0.01231 3.61943 -0.01865 C4.2596 -0.01146 4.2596 -0.01146 7.49927 0.0249 C8.81921 0.02582 10.13916 0.02674 11.4991 0.02768 C14.28575 0.0308 17.07188 0.04731 19.8584 0.07422 C23.43308 0.1083 27.00719 0.11584 30.58201 0.11433 C33.99201 0.115 37.40181 0.13267 40.81177 0.1499 C42.09819 0.15213 43.38461 0.15435 44.71001 0.15665 C45.89496 0.16941 47.07992 0.18217 48.30078 0.19531 C49.34715 0.20294 50.39352 0.21056 51.4716 0.21841 C53.9563 0.48584 53.9563 0.48584 55.9563 2.48584 C55.59171 6.36235 54.16139 9.41624 52.40161 12.85303 C51.87511 13.89121 51.34861 14.92938 50.80615 15.99902 C50.52155 16.55372 50.52155 16.55372 49.0813 19.36084 C47.883 21.72459 46.68605 24.08897 45.49146 26.45459 C45.18999 27.05049 44.88853 27.64639 44.57793 28.26035 C41.80543 33.75376 39.14953 39.29853 36.5188 44.86084 C32.15589 54.06392 27.6303 63.17963 23.05484 72.2785 C19.01919 80.30811 15.06208 88.36837 11.2063 96.48584 C7.65727 103.94024 4.09706 111.38822 0.4563 118.79834 C0.0467 119.64719 -0.3629 120.49604 -0.78491 121.37061 C-1.16937 122.14727 -1.55384 122.92393 -1.94995 123.72412 C-2.11656 124.06464 -2.11656 124.06464 -2.95972 125.78784 C-4.0437 127.48584 -4.0437 127.48584 -7.0437 129.48584 C-13.75201 116.86774 -20.28134 104.17047 -26.6604 91.38281 C-28.06769 88.56277 -29.47936 85.74494 -30.89136 82.92725 C-31.79656 81.11618 -32.70152 79.30498 -33.6062 77.49365 C-34.02386 76.66036 -34.44151 75.82708 -34.87183 74.96854 C-35.9444 72.81468 -36.99676 70.65223 -38.0437 68.48584 C-38.5014 67.57004 -38.9591 66.65424 -39.43066 65.71069 C-40.24355 62.76054 -39.65345 61.5893 -38.28979 58.88037 C-37.85361 57.9918 -37.41742 57.10324 -36.96802 56.18774 C-36.47737 55.23424 -35.98672 54.28074 -35.4812 53.29834 C-34.9854 52.30036 -34.48959 51.30239 -33.97876 50.27417 C-32.91017 48.12886 -31.83336 45.98762 -30.74927 43.8501 C-29.01128 40.42188 -27.29632 36.98296 -25.58667 33.54053 C-22.90096 28.1391 -20.20664 22.74233 -17.47827 17.3623 C-16.53426 15.46946 -15.61605 13.56349 -14.72632 11.64453 C-14.31285 10.7633 -13.89938 9.88206 -13.47339 8.97412 C-13.1226 8.20238 -12.77182 7.43063 -12.4104 6.6355 C-9.23471 1.6405 -5.80822 -0.01578 0 0 Z " fill="#1C2136" transform="translate(560.043701171875,373.51416015625)"/>
</svg>