<?xml version="1.0" encoding="UTF-8"?>
<svg version="1.1" xmlns="http://www.w3.org/2000/svg" viewBox="0 0 1024 1024" width="1024" height="1024">
<path d="M0 0 C7.70185 -0.1394 15.40357 -0.24582 23.1064 -0.31087 C26.68377 -0.34211 30.26028 -0.38442 33.83716 -0.45264 C37.29317 -0.51813 40.74835 -0.55377 44.20494 -0.56926 C46.15656 -0.58565 48.10786 -0.63244 50.05898 -0.67978 C60.00801 -0.68353 60.00801 -0.68353 63.83643 2.03003 C69.08682 7.595 72.1174 15.28777 75.42578 22.10547 C76.21989 23.71121 77.01551 25.3162 77.81255 26.92049 C79.90567 31.14284 81.97981 35.37424 84.04956 39.60809 C86.12643 43.84985 88.2185 48.08408 90.31055 52.31836 C91.12795 53.973 91.94536 55.62763 92.76276 57.28227 C92.9625 57.68654 92.9625 57.68654 93.9733 59.73238 C95.17155 62.1594 96.36767 64.58745 97.56342 67.0157 C102.162 76.34573 106.85989 85.60776 111.76147 94.78296 C115.73343 102.22451 119.51336 109.7661 123.29932 117.30347 C124.19751 119.08811 125.09932 120.87094 126.00439 122.6521 C127.33619 125.27336 128.65755 127.89964 129.97656 130.52734 C130.38267 131.32205 130.78877 132.11675 131.20718 132.93553 C131.57532 133.67473 131.94346 134.41394 132.32275 135.17554 C132.48532 135.49774 132.48532 135.49774 133.30801 137.12828 C134 139 134 139 134 143 C131.30564 144.34718 129.17772 144.15701 126.16089 144.19287 C124.93589 144.20893 123.71089 144.225 122.44878 144.24155 C121.10518 144.25303 119.76158 144.26364 118.41797 144.27344 C117.74202 144.27876 117.06608 144.28408 116.36965 144.28957 C112.79129 144.31629 109.21296 144.33567 105.63452 144.3501 C102.6749 144.36343 99.71596 144.39128 96.75659 144.43213 C93.18156 144.48147 89.60715 144.50622 86.03179 144.51332 C84.67102 144.52003 83.31025 144.53525 81.94967 144.55922 C71.1063 144.73934 71.1063 144.73934 66.85791 141.90015 C64.80756 138.6996 62.93426 135.49842 61.29297 132.07422 C60.96388 131.40897 60.63479 130.74371 60.29573 130.0583 C59.25008 127.93925 58.2185 125.81371 57.1875 123.6875 C56.50811 122.30357 55.82777 120.92011 55.14648 119.53711 C53.77439 116.74933 52.40764 113.95901 51.04419 111.16699 C49.07331 107.1387 47.06747 103.12857 45.05469 99.12109 C42.21538 93.46115 39.41891 87.78178 36.65234 82.08594 C36.27655 81.31248 35.90075 80.53902 35.51357 79.74213 C33.90034 76.42034 32.28797 73.09814 30.67743 69.77505 C25.39148 58.87571 20.02021 48.02704 14.51172 37.23828 C13.43673 35.12396 12.36194 33.00954 11.28735 30.89502 C9.71348 27.79862 8.13435 24.70556 6.53732 21.62103 C5.0552 18.75815 3.59236 15.88615 2.13281 13.01172 C1.90784 12.584 1.90784 12.584 0.76933 10.41951 C0.37253 9.62969 -0.02428 8.83987 -0.43311 8.02612 C-0.60946 7.6838 -0.60946 7.6838 -1.50192 5.95146 C-2 4 -2 4 -1.09793 1.74837 C-0.73561 1.17141 -0.3733 0.59444 0 0 Z " fill="#1C2136" transform="translate(410,374)"/>
<path d="M0 0 C1.19441 -0.00615 2.38882 -0.01231 3.61943 -0.01865 C4.2596 -0.01146 4.2596 -0.01146 7.49927 0.0249 C8.81921 0.02582 10.13916 0.02674 11.4991 0.02768 C14.28575 0.0308 17.07188 0.04731 19.8584 0.07422 C23.43308 0.1083 27.00719 0.11584 30.58201 0.11433 C33.99201 0.115 37.40181 0.13267 40.81177 0.1499 C42.09819 0.15213 43.38461 0.15435 44.71001 0.15665 C45.89496 0.16941 47.07992 0.18217 48.30078 0.19531 C49.34715 0.20294 50.39352 0.21056 51.4716 0.21841 C53.9563 0.48584 53.9563 0.48584 55.9563 2.48584 C55.59171 6.36235 54.16139 9.41624 52.40161 12.85303 C51.87511 13.89121 51.34861 14.92938 50.80615 15.99902 C50.52155 16.55372 50.52155 16.55372 49.0813 19.36084 C47.883 21.72459 46.68605 24.08897 45.49146 26.45459 C45.18999 27.05049 44.88853 27.64639 44.57793 28.26035 C41.80543 33.75376 39.14953 39.29853 36.5188 44.86084 C32.15589 54.06392 27.6303 63.17963 23.05484 72.2785 C19.01919 80.30811 15.06208 88.36837 11.2063 96.48584 C7.65727 103.94024 4.09706 111.38822 0.4563 118.79834 C0.0467 119.64719 -0.3629 120.49604 -0.78491 121.37061 C-1.16937 122.14727 -1.55384 122.92393 -1.94995 123.72412 C-2.11656 124.06464 -2.11656 124.06464 -2.95972 125.78784 C-4.0437 127.48584 -4.0437 127.48584 -7.0437 129.48584 C-13.75201 116.86774 -20.28134 104.17047 -26.6604 91.38281 C-28.06769 88.56277 -29.47936 85.74494 -30.89136 82.92725 C-31.79656 81.11618 -32.70152 79.30498 -33.6062 77.49365 C-34.02386 76.66036 -34.44151 75.82708 -34.87183 74.96854 C-35.9444 72.81468 -36.99676 70.65223 -38.0437 68.48584 C-38.5014 67.57004 -38.9591 66.65424 -39.43066 65.71069 C-40.24355 62.76054 -39.65345 61.5893 -38.28979 58.88037 C-37.85361 57.9918 -37.41742 57.10324 -36.96802 56.18774 C-36.47737 55.23424 -35.98672 54.28074 -35.4812 53.29834 C-34.9854 52.30036 -34.48959 51.30239 -33.97876 50.27417 C-32.91017 48.12886 -31.83336 45.98762 -30.74927 43.8501 C-29.01128 40.42188 -27.29632 36.98296 -25.58667 33.54053 C-22.90096 28.1391 -20.20664 22.74233 -17.47827 17.3623 C-16.53426 15.46946 -15.61605 13.56349 -14.72632 11.64453 C-14.31285 10.7633 -13.89938 9.88206 -13.47339 8.97412 C-13.1226 8.20238 -12.77182 7.43063 -12.4104 6.6355 C-9.23471 1.6405 -5.80822 -0.01578 0 0 Z " fill="#1C2136" transform="translate(560.043701171875,373.51416015625)"/>
<path d="M0 0 C1.89072 -0.21712 3.78868 -0.37173 5.6875 -0.5 C6.74324 -0.59281 7.79898 -0.68562 8.88672 -0.78125 C12.40286 0.10109 12.69103 0.46266 14.55859 3.36719 C15.40018 4.89649 16.21221 6.4423 17 8 C17.43111 8.82339 17.86222 9.64678 18.3064 10.49512 C19.69417 13.19038 21.03914 15.90366 22.375 18.625 C23.27858 20.45055 24.18223 22.27607 25.08594 24.10156 C25.54323 25.02872 26.00053 25.95588 26.47168 26.91113 C29.29492 32.61715 32.14917 38.30773 35 44 C35.4888 42.95135 35.97759 41.9027 36.4812 40.82227 C38.31177 36.89859 40.14916 32.97815 41.98853 29.05859 C42.78073 27.36805 43.57113 25.67665 44.35962 23.98438 C45.49923 21.53937 46.64548 19.09757 47.79297 16.65625 C48.13902 15.91008 48.48506 15.16392 48.8416 14.39514 C53.79502 3.90269 53.79502 3.90269 57 0 C60.11328 -0.78125 60.11328 -0.78125 63.3125 -0.5 C63.84682 -0.46391 63.84682 -0.46391 66.55078 -0.28125 C66.9549 -0.23484 66.9549 -0.23484 69 0 C68.43383 4.33572 67.3757 7.81151 65.51562 11.76172 C64.99847 12.86862 64.48131 13.97552 63.94849 15.11597 C63.38799 16.29457 62.82749 17.47318 62.25 18.6875 C61.66972 19.91882 61.08989 21.15035 60.5105 22.38208 C58.99252 25.60308 57.46415 28.81905 55.93378 32.03418 C54.69209 34.64822 53.4593 37.26642 52.22604 39.88445 C51.04481 42.38817 49.85732 44.88888 48.6676 47.38858 C47.82179 49.16796 46.98069 50.94957 46.13965 52.7312 C45.62563 53.80346 45.11162 54.87572 44.58203 55.98047 C44.13062 56.92817 43.6792 57.87587 43.21411 58.85229 C42 61 42 61 40 62 C37.57422 62.37891 37.57422 62.37891 34.6875 62.5625 C33.74262 62.64629 32.79773 62.73008 31.82422 62.81641 C27.94879 61.69612 27.13235 59.82206 25.21753 56.39233 C23.08947 52.21088 21.04015 48.00485 19.0625 43.75 C15.85038 36.90699 12.57442 30.1072 9.13672 23.375 C8.81321 22.73911 8.4897 22.10322 8.15639 21.44806 C6.87091 18.92213 5.58544 16.39646 4.28006 13.88074 C3.37083 12.12804 2.47419 10.36883 1.57812 8.60938 C1.05638 7.59843 0.53463 6.58748 -0.00293 5.5459 C-1 3 -1 3 0 0 Z " fill="#1C2136" transform="translate(168,587)"/>
<path d="M0 0 C1.11786 -0.00315 2.23572 -0.0063 3.38745 -0.00955 C3.99577 -0.00854 3.99577 -0.00854 7.07422 -0.00342 C8.31341 -0.00437 9.5526 -0.00533 10.82935 -0.00632 C13.4556 -0.007 16.08177 -0.00564 18.70801 -0.00098 C22.08101 0.00472 25.45392 0.00144 28.82692 -0.00455 C32.03436 -0.00902 35.24178 -0.00589 38.44922 -0.00342 C39.66585 -0.00544 40.88249 -0.00747 42.13599 -0.00955 C42.69492 -0.00798 42.69492 -0.00798 45.52344 0 C46.51303 0.0008 47.50263 0.00159 48.52222 0.00241 C50.76172 0.12939 50.76172 0.12939 51.76172 1.12939 C51.86023 2.96055 51.89145 4.79559 51.88672 6.62939 C51.88801 7.12955 51.88801 7.12955 51.89453 9.66064 C51.76172 12.12939 51.76172 12.12939 50.76172 13.12939 C49.01789 13.22827 47.27006 13.25738 45.52344 13.25879 C44.40558 13.26194 43.28772 13.26509 42.13599 13.26834 C40.91935 13.26632 39.70272 13.26429 38.44922 13.26221 C37.21003 13.26316 35.97083 13.26412 34.69409 13.26511 C32.06784 13.26579 29.44167 13.26443 26.81543 13.25977 C23.44243 13.25407 20.06951 13.25735 16.69652 13.26334 C13.48908 13.26781 10.28166 13.26468 7.07422 13.26221 C5.85759 13.26423 4.64095 13.26626 3.38745 13.26834 C2.82852 13.26676 2.82852 13.26676 0 13.25879 C-0.9896 13.25799 -1.97919 13.2572 -2.99878 13.25638 C-5.23828 13.12939 -5.23828 13.12939 -6.23828 12.12939 C-6.33679 10.29824 -6.36801 8.4632 -6.36328 6.62939 C-6.36586 5.62908 -6.36844 4.62877 -6.37109 3.59814 C-6.13003 -0.88282 -3.96762 0.00319 0 0 Z " fill="#1C2136" transform="translate(256.23828125,586.87060546875)"/>
<path d="M0 0 C0.50016 0.00129 0.50016 0.00129 3.03125 0.00781 C4.03156 0.00523 5.03188 0.00266 6.0625 0 C8.53125 0.13281 8.53125 0.13281 9.53125 1.13281 C9.62437 2.637 9.64871 4.14553 9.64478 5.65259 C9.6447 6.61351 9.64462 7.57443 9.64455 8.56447 C9.63939 9.60925 9.63422 10.65403 9.62891 11.73047 C9.62749 12.79446 9.62608 13.85846 9.62462 14.9547 C9.619 18.36826 9.60645 21.78177 9.59375 25.19531 C9.58874 27.50325 9.58417 29.8112 9.58008 32.11914 C9.56903 37.79039 9.55227 43.4616 9.53125 49.13281 C9.80576 49.1317 9.80576 49.1317 11.19493 49.12608 C16.88833 49.10403 22.58172 49.08891 28.27515 49.07788 C30.40243 49.07284 32.52971 49.06601 34.65698 49.05737 C37.70753 49.0453 40.75803 49.03958 43.80859 49.03516 C44.28724 49.03258 44.28724 49.03258 46.70946 49.01952 C47.14988 49.01948 47.14988 49.01948 49.37866 49.01929 C49.76838 49.01818 49.76838 49.01818 51.74059 49.01256 C53.53125 49.13281 53.53125 49.13281 54.53125 50.13281 C54.60369 52.15245 54.61502 54.17448 54.59375 56.19531 C54.58473 57.30004 54.5757 58.40477 54.56641 59.54297 C54.5548 60.39762 54.5432 61.25227 54.53125 62.13281 C47.11665 62.15594 39.70206 62.17373 32.28743 62.18462 C28.84485 62.18985 25.40229 62.19695 21.95972 62.20825 C18.0057 62.22115 14.05169 62.22604 10.09766 62.23047 C9.47683 62.23305 9.47683 62.23305 6.3351 62.24611 C5.76454 62.24615 5.76454 62.24615 2.8772 62.24634 C1.86682 62.24856 0.85644 62.25078 -0.18456 62.25307 C-2.46875 62.13281 -2.46875 62.13281 -3.46875 61.13281 C-3.56786 59.26645 -3.59674 57.39633 -3.59814 55.52734 C-3.6013 54.3294 -3.60445 53.13146 -3.6077 51.89722 C-3.60567 50.59309 -3.60365 49.28896 -3.60156 47.94531 C-3.60224 46.60392 -3.60321 45.26253 -3.60446 43.92114 C-3.60594 41.1066 -3.60379 38.29208 -3.59912 35.47754 C-3.59342 31.86241 -3.5967 28.24735 -3.60269 24.63222 C-3.6063 21.86136 -3.60516 19.09053 -3.60257 16.31967 C-3.60157 14.33592 -3.60462 12.35216 -3.6077 10.36841 C-3.60454 9.17047 -3.60139 7.97252 -3.59814 6.73828 C-3.59735 5.67762 -3.59655 4.61697 -3.59573 3.52417 C-3.42198 0.25195 -3.27721 0.17631 0 0 Z " fill="#1C2136" transform="translate(328.46875,586.8671875)"/>
<path d="M0 0 C0.57873 -0.0031 0.57873 -0.0031 3.50745 -0.01878 C5.95173 -0.02588 8.39607 -0.02271 10.84033 -0.01001 C14.58066 0.00386 18.31848 -0.03023 22.05859 -0.06836 C24.4349 -0.06931 26.8112 -0.06745 29.1875 -0.0625 C30.30532 -0.07576 31.42314 -0.08902 32.57483 -0.10268 C37.18371 -0.04738 40.24275 0.08609 44.29858 2.37524 C47.04016 7.24878 46.78924 11.75024 46.72266 17.25391 C46.72507 18.38917 46.72748 19.52443 46.72997 20.69409 C46.72899 23.09134 46.7156 25.48862 46.69067 27.88574 C46.65637 31.55352 46.67002 35.21888 46.68945 38.88672 C46.68255 41.21746 46.67288 43.54819 46.66016 45.87891 C46.66512 46.97485 46.67008 48.0708 46.67519 49.19995 C46.60969 53.43714 46.39774 56.80126 44.82593 60.75757 C40.1928 63.82493 35.23622 63.25678 29.8125 63.19531 C28.60686 63.19772 27.40123 63.20014 26.15906 63.20262 C23.6104 63.20164 21.06172 63.18823 18.51318 63.16333 C14.60832 63.12903 10.70571 63.14267 6.80078 63.16211 C4.32551 63.15521 1.85025 63.14554 -0.625 63.13281 C-1.79486 63.13777 -2.96473 63.14273 -4.17004 63.14784 C-5.25797 63.13201 -6.3459 63.11617 -7.4668 63.09985 C-8.42292 63.09365 -9.37904 63.08746 -10.36414 63.08107 C-13.71877 62.40191 -14.89014 61.30582 -16.90625 58.56641 C-17.42091 56.06226 -17.42091 56.06226 -17.4397 53.21875 C-17.45553 52.15084 -17.47137 51.08293 -17.48769 49.98267 C-17.48273 48.83468 -17.47777 47.68668 -17.47266 46.50391 C-17.47885 45.32047 -17.48505 44.13703 -17.49144 42.91772 C-17.49854 40.41619 -17.49536 37.9146 -17.48267 35.41309 C-17.4688 31.5805 -17.50287 27.75035 -17.54102 23.91797 C-17.54197 21.48828 -17.54011 19.05859 -17.53516 16.62891 C-17.54841 15.48092 -17.56167 14.33292 -17.57533 13.15015 C-17.48488 5.44265 -17.48488 5.44265 -15.11108 1.8479 C-10.11736 -0.1489 -5.33173 -0.02366 0 0 Z M-4.90625 14.56641 C-5.0063 16.46012 -5.03706 18.35756 -5.03906 20.25391 C-5.04035 21.42824 -5.04164 22.60258 -5.04297 23.8125 C-5.0391 25.05129 -5.03523 26.29008 -5.03125 27.56641 C-5.03512 28.77426 -5.03898 29.98211 -5.04297 31.22656 C-5.04168 32.41121 -5.04039 33.59586 -5.03906 34.81641 C-5.03793 35.89406 -5.03681 36.97172 -5.03564 38.08203 C-4.88058 42.25761 -4.36768 46.41351 -3.90625 50.56641 C8.30375 50.23641 20.51375 49.90641 33.09375 49.56641 C33.09375 37.68641 33.09375 25.80641 33.09375 13.56641 C27.84264 13.5435 22.5917 13.52357 17.34058 13.51147 C15.55281 13.50643 13.76505 13.4996 11.97729 13.49097 C9.41324 13.47889 6.84924 13.47318 4.28516 13.46875 C3.48099 13.46359 2.67682 13.45843 1.84828 13.45311 C-3.79238 13.45253 -3.79238 13.45253 -4.90625 14.56641 Z " fill="#1C2136" transform="translate(414.90625,586.43359375)"/>
<path d="M0 0 C0.59338 0.00235 0.59338 0.00235 3.59627 0.01425 C7.38378 0.03559 11.16989 0.09222 14.95703 0.14844 C17.51887 0.16494 20.08072 0.17929 22.64258 0.19141 C27.31683 0.22538 31.99094 0.26006 36.66479 0.33057 C37.13469 0.337 37.13469 0.337 39.51262 0.36954 C41.76953 0.52344 41.76953 0.52344 43.76953 1.52344 C43.79665 2.96083 43.81598 4.39838 43.83203 5.83594 C43.84363 6.63645 43.85523 7.43695 43.86719 8.26172 C43.76953 10.52344 43.76953 10.52344 42.76953 13.52344 C27.25953 13.52344 11.74953 13.52344 -4.23047 13.52344 C-4.23047 25.40344 -4.23047 37.28344 -4.23047 49.52344 C-0.93305 49.50023 2.36437 49.47703 5.76172 49.45312 C8.94547 49.43754 12.12922 49.42539 15.31299 49.41357 C17.53046 49.4035 19.74791 49.38984 21.96533 49.37256 C25.14749 49.34838 28.32948 49.33697 31.51172 49.32812 C32.00965 49.32296 32.00965 49.32296 34.52951 49.29684 C34.98991 49.29677 34.98991 49.29677 37.31982 49.29639 C38.13257 49.29195 38.94531 49.2875 39.78268 49.28293 C41.76953 49.52344 41.76953 49.52344 43.76953 51.52344 C44 53.87109 44 53.87109 43.95703 56.58594 C43.95059 57.48441 43.94414 58.38289 43.9375 59.30859 C43.76953 61.52344 43.76953 61.52344 42.76953 62.52344 C41.03663 62.63277 39.29929 62.67252 37.56299 62.68457 C36.45158 62.69418 35.34018 62.70379 34.1951 62.71368 C32.98474 62.71793 31.77438 62.72218 30.52734 62.72656 C29.2929 62.73226 28.05845 62.73796 26.78659 62.74384 C24.16877 62.7533 21.55094 62.75983 18.93311 62.76367 C16.24417 62.76807 13.55555 62.78199 10.8667 62.80469 C7.00348 62.83505 3.14067 62.84571 -0.72266 62.85156 C-1.92897 62.86391 -3.13528 62.87626 -4.37814 62.88898 C-5.49585 62.88598 -6.61356 62.88297 -7.76514 62.87988 C-8.75029 62.88353 -9.73545 62.88717 -10.75046 62.89093 C-13.23047 62.52344 -13.23047 62.52344 -15.04007 61.3273 C-16.63826 58.90549 -16.66135 57.19981 -16.74219 54.30518 C-16.77812 53.24042 -16.81405 52.17566 -16.85107 51.07864 C-16.87315 49.92863 -16.89522 48.77861 -16.91797 47.59375 C-16.94778 46.41127 -16.97759 45.22878 -17.0083 44.01047 C-17.06608 41.50731 -17.116 39.00395 -17.15869 36.50049 C-17.23007 32.66957 -17.34417 28.84149 -17.46094 25.01172 C-17.51173 22.58078 -17.55999 20.14979 -17.60547 17.71875 C-17.64374 16.57278 -17.68201 15.42682 -17.72144 14.24612 C-17.76818 9.57416 -17.72943 6.43951 -15.47144 2.29395 C-10.42117 -0.46496 -5.66183 -0.1117 0 0 Z " fill="#1C2136" transform="translate(494.23046875,586.4765625)"/>
<path d="M0 0 C1.81242 -0.02687 3.62495 -0.04634 5.4375 -0.0625 C6.44684 -0.0741 7.45617 -0.0857 8.49609 -0.09766 C11 0 11 0 12 1 C12.09911 2.86636 12.12799 4.73648 12.12939 6.60547 C12.13255 7.80341 12.1357 9.00135 12.13895 10.2356 C12.13692 11.53972 12.1349 12.84385 12.13281 14.1875 C12.13349 15.52889 12.13446 16.87028 12.13571 18.21167 C12.13719 21.02622 12.13504 23.84073 12.13037 26.65527 C12.12467 30.27041 12.12795 33.88546 12.13394 37.5006 C12.13755 40.27145 12.13641 43.04229 12.13382 45.81314 C12.13282 47.7969 12.13587 49.78065 12.13895 51.7644 C12.13579 52.96235 12.13264 54.16029 12.12939 55.39453 C12.129 55.92486 12.129 55.92486 12.12698 58.60864 C12 61 12 61 11 62 C9.14712 62.07227 7.29166 62.08381 5.4375 62.0625 C4.42559 62.05348 3.41367 62.04445 2.37109 62.03516 C1.97986 62.02936 1.97986 62.02936 0 62 C-0.95307 58.78565 -1.12662 55.89126 -1.12939 52.54468 C-1.13255 51.45352 -1.1357 50.36237 -1.13895 49.23814 C-1.13692 48.06514 -1.1349 46.89214 -1.13281 45.68359 C-1.13377 44.47559 -1.13473 43.26758 -1.13571 42.02296 C-1.13639 39.47014 -1.13455 36.91732 -1.13037 34.3645 C-1.12502 30.44934 -1.13032 26.5343 -1.13672 22.61914 C-1.13606 20.14062 -1.13478 17.66211 -1.13281 15.18359 C-1.13484 14.00857 -1.13686 12.83354 -1.13895 11.62291 C-1.13579 10.53491 -1.13264 9.4469 -1.12939 8.32593 C-1.1286 7.36759 -1.1278 6.40924 -1.12698 5.42186 C-1 3 -1 3 0 0 Z " fill="#1C2136" transform="translate(555,587)"/>
<path d="M0 0 C1.15782 -0.00315 2.31565 -0.0063 3.50856 -0.00955 C4.76378 -0.00753 6.019 -0.0055 7.31226 -0.00342 C8.59442 -0.00437 9.87659 -0.00533 11.19762 -0.00632 C13.91203 -0.00779 16.62641 -0.00565 19.34082 -0.00098 C22.82701 0.00473 26.31312 0.00144 29.79931 -0.00455 C33.11613 -0.00902 36.43293 -0.00589 39.74976 -0.00342 C40.37838 -0.00443 40.37838 -0.00443 43.55959 -0.00955 C44.13692 -0.00798 44.13692 -0.00798 47.05859 0 C48.0807 0.0008 49.10282 0.00159 50.1559 0.00241 C52.4646 0.12939 52.4646 0.12939 53.4646 1.12939 C53.56311 2.96055 53.59433 4.79559 53.5896 6.62939 C53.59089 7.12955 53.59089 7.12955 53.59741 9.66064 C53.4646 12.12939 53.4646 12.12939 52.4646 13.12939 C50.75688 13.21653 49.04561 13.23639 47.33569 13.22705 C46.81846 13.22544 46.81846 13.22544 44.20093 13.21729 C43.11231 13.20891 42.0237 13.20053 40.9021 13.19189 C40.35586 13.18964 40.35586 13.18964 37.59155 13.17822 C34.88251 13.16639 32.17358 13.14991 29.4646 13.12939 C29.46682 13.72852 29.46904 14.32765 29.47133 14.94493 C29.49338 21.15737 29.50851 27.3698 29.51953 33.58228 C29.52457 35.90357 29.53141 38.22486 29.54004 40.54614 C29.55211 43.87468 29.55783 47.20318 29.56226 50.53174 C29.56742 51.57652 29.57258 52.6213 29.5779 53.69774 C29.57797 54.65866 29.57805 55.61958 29.57812 56.60962 C29.58035 57.46011 29.58257 58.31061 29.58485 59.18687 C29.4646 61.12939 29.4646 61.12939 28.4646 62.12939 C26.63344 62.22791 24.7984 62.25912 22.9646 62.25439 C21.96429 62.25697 20.96397 62.25955 19.93335 62.26221 C17.4646 62.12939 17.4646 62.12939 16.4646 61.12939 C16.37148 59.62521 16.34714 58.11668 16.35107 56.60962 C16.35115 55.6487 16.35123 54.68778 16.3513 53.69774 C16.35646 52.65296 16.36163 51.60818 16.36694 50.53174 C16.36836 49.46774 16.36977 48.40375 16.37123 47.30751 C16.37685 43.89394 16.3894 40.48044 16.4021 37.06689 C16.40711 34.75895 16.41168 32.45101 16.41577 30.14307 C16.42598 24.4718 16.44555 18.80067 16.4646 13.12939 C8.8746 13.12939 1.2846 13.12939 -6.5354 13.12939 C-7.79778 10.60464 -7.63396 8.81739 -7.5979 6.00439 C-7.58888 5.09432 -7.57985 4.18424 -7.57056 3.24658 C-7.55896 2.54791 -7.54735 1.84924 -7.5354 1.12939 C-4.90463 -0.18599 -2.94594 0.00229 0 0 Z " fill="#1C2136" transform="translate(589.535400390625,586.87060546875)"/>
<path d="M0 0 C1.89382 -0.13592 3.7905 -0.23241 5.6875 -0.3125 C6.74324 -0.37051 7.79898 -0.42852 8.88672 -0.48828 C13.08827 0.17068 14.25044 1.80515 17 5 C17.98693 6.0558 18.97799 7.10774 19.97266 8.15625 C21.0037 9.26982 22.03363 10.38442 23.0625 11.5 C23.32063 11.77779 23.32063 11.77779 24.62695 13.18359 C27.55773 16.35705 30.34514 19.58752 33 23 C36.83945 21.48148 38.67491 19.22197 41.1875 16 C41.98156 15.02418 42.77562 14.04836 43.59375 13.04297 C45.14312 11.08362 46.64774 9.0876 48.09375 7.05078 C51.33472 2.81213 53.2656 0.29275 58.67969 -0.62109 C62.17795 -0.62461 65.53207 -0.44397 69 0 C69.165 0.495 69.165 0.495 70 3 C68.28285 5.33302 66.55988 7.42216 64.625 9.5625 C64.07497 10.18657 63.52495 10.81063 62.95825 11.45361 C61.31583 13.31193 59.66002 15.1574 58 17 C57.15566 17.94488 56.31133 18.88977 55.44141 19.86328 C53.97965 21.49224 52.51375 23.11748 51.04297 24.73828 C48.43101 27.62991 45.86875 30.56304 43.3125 33.50391 C42.56451 34.35653 41.80202 35.19798 41 36 C40.84193 37.92479 40.74887 39.85499 40.68359 41.78516 C40.66265 42.37007 40.66265 42.37007 40.55664 45.33008 C40.51732 46.56178 40.47801 47.79348 40.4375 49.0625 C40.41591 49.68028 40.41591 49.68028 40.30664 52.80664 C40.20016 55.87097 40.09815 58.93539 40 62 C38.02091 62.02687 36.04171 62.04633 34.0625 62.0625 C32.96035 62.0741 31.8582 62.0857 30.72266 62.09766 C28 62 28 62 27 61 C26.95177 59.34706 26.96334 57.6923 27 56.03906 C27.10036 36.71742 27.10036 36.71742 22.125 30.8125 C20.44268 29.18108 18.73252 27.57801 17 26 C15.06285 23.84284 13.22164 21.60973 11.375 19.375 C10.45158 18.27906 9.52712 17.18398 8.60156 16.08984 C8.16231 15.56761 7.72307 15.04538 7.27051 14.50732 C6.08926 13.10589 4.9004 11.71088 3.71094 10.31641 C3.06383 9.53137 2.41672 8.74633 1.75 7.9375 C1.46898 7.6017 1.46898 7.6017 0.04688 5.90234 C-1 4 -1 4 -0.67188 1.75391 C-0.45016 1.17512 -0.22844 0.59633 0 0 Z " fill="#1C2136" transform="translate(656,587)"/>
<path d="M0 0 C1.0377 -0.07477 2.07539 -0.14953 3.14453 -0.22656 C6.52374 0.7191 6.84447 1.04792 8.66016 3.84766 C9.53138 5.42454 10.37048 7.01936 11.1875 8.625 C11.69031 9.586 12.19313 10.54699 12.71118 11.53711 C14.44528 14.90465 16.1339 18.29197 17.8125 21.6875 C18.42452 22.92181 19.03659 24.1561 19.64868 25.39038 C21.19964 28.52245 22.74336 31.65805 24.28558 34.79443 C25.16184 36.57293 26.04301 38.349 26.92432 40.125 C28.50201 43.30733 30.06589 46.49603 31.625 49.6875 C32.1034 50.64987 32.58181 51.61223 33.07471 52.60376 C33.50251 53.48862 33.93032 54.37348 34.37109 55.28516 C34.74806 56.05481 35.12503 56.82446 35.51343 57.61743 C36.1875 59.625 36.1875 59.625 35.1875 62.625 C30.8975 62.625 26.6075 62.625 22.1875 62.625 C20.2075 58.995 18.2275 55.365 16.1875 51.625 C8.2675 51.625 0.3475 51.625 -7.8125 51.625 C-6.1137 46.52859 -4.50312 43.10937 -1.8125 38.625 C2.1475 38.625 6.1075 38.625 10.1875 38.625 C9.86266 37.95082 9.86266 37.95082 8.21875 34.53906 C7.3748 32.77614 6.53106 31.01311 5.6875 29.25 C5.25824 28.36055 4.82898 27.47109 4.38672 26.55469 C3.98066 25.70391 3.57461 24.85312 3.15625 23.97656 C2.96772 23.5838 2.96772 23.5838 2.01367 21.59619 C1.1875 19.625 1.1875 19.625 1.1875 17.625 C0.5275 17.625 -0.1325 17.625 -0.8125 17.625 C-1.0737 18.46885 -1.33489 19.31271 -1.604 20.18213 C-2.88285 23.82543 -4.45069 27.25119 -6.14844 30.71094 C-6.46906 31.37155 -6.78969 32.03217 -7.12003 32.7128 C-8.13908 34.81023 -9.16325 36.90511 -10.1875 39 C-10.86752 40.39828 -11.54721 41.79671 -12.22656 43.19531 C-15.38487 49.69043 -18.56256 56.17513 -21.8125 62.625 C-26.1025 62.625 -30.3925 62.625 -34.8125 62.625 C-35.1425 61.965 -35.4725 61.305 -35.8125 60.625 C-35.18604 58.84204 -35.18604 58.84204 -34.10156 56.62891 C-33.68898 55.77643 -33.2764 54.92396 -32.85132 54.04565 C-32.61804 53.57406 -32.61804 53.57406 -31.4375 51.1875 C-30.95869 50.20499 -30.47989 49.22249 -29.98657 48.21021 C-28.89545 45.97174 -27.80122 43.73479 -26.70459 41.49902 C-24.56918 37.13735 -22.46724 32.75972 -20.36328 28.38281 C-19.2094 25.98766 -18.05482 23.59284 -16.89984 21.19821 C-16.13318 19.60752 -15.36759 18.01632 -14.60309 16.42459 C-13.51941 14.17039 -12.43031 11.91889 -11.33984 9.66797 C-11.01317 8.98562 -10.6865 8.30327 -10.34993 7.60025 C-7.60727 1.96209 -6.34786 0.29743 0 0 Z " fill="#1C2136" transform="translate(792.8125,586.375)"/>
<path d="M0 0 C0.50016 0.00129 0.50016 0.00129 3.03125 0.00781 C4.03156 0.00523 5.03188 0.00266 6.0625 0 C8.53125 0.13281 8.53125 0.13281 9.53125 1.13281 C9.63036 2.99917 9.65924 4.86929 9.66064 6.73828 C9.6638 7.93622 9.66695 9.13417 9.6702 10.36841 C9.66817 11.67254 9.66615 12.97667 9.66406 14.32031 C9.66474 15.6617 9.66571 17.00309 9.66696 18.34448 C9.66844 21.15903 9.66629 23.97354 9.66162 26.78809 C9.65592 30.40322 9.6592 34.01828 9.66519 37.63341 C9.6688 40.40426 9.66766 43.1751 9.66507 45.94595 C9.66407 47.92971 9.66712 49.91346 9.6702 51.89722 C9.66704 53.09516 9.66389 54.2931 9.66064 55.52734 C9.66025 56.05767 9.66025 56.05767 9.65823 58.74146 C9.53125 61.13281 9.53125 61.13281 8.53125 62.13281 C6.70009 62.23132 4.86505 62.26254 3.03125 62.25781 C2.03094 62.26039 1.03062 62.26297 0 62.26562 C-2.46875 62.13281 -2.46875 62.13281 -3.46875 61.13281 C-3.56786 59.26645 -3.59674 57.39633 -3.59814 55.52734 C-3.6013 54.3294 -3.60445 53.13146 -3.6077 51.89722 C-3.60567 50.59309 -3.60365 49.28896 -3.60156 47.94531 C-3.60224 46.60392 -3.60321 45.26253 -3.60446 43.92114 C-3.60594 41.1066 -3.60379 38.29208 -3.59912 35.47754 C-3.59342 31.86241 -3.5967 28.24735 -3.60269 24.63222 C-3.6063 21.86136 -3.60516 19.09053 -3.60257 16.31967 C-3.60157 14.33592 -3.60462 12.35216 -3.6077 10.36841 C-3.60454 9.17047 -3.60139 7.97252 -3.59814 6.73828 C-3.59735 5.67762 -3.59655 4.61697 -3.59573 3.52417 C-3.42198 0.25195 -3.27721 0.17631 0 0 Z " fill="#1C2136" transform="translate(847.46875,586.8671875)"/>
<path d="M0 0 C0.76167 0.00222 1.52334 0.00444 2.30809 0.00673 C3.16891 0.0068 4.02972 0.00688 4.91663 0.00696 C5.85204 0.01212 6.78745 0.01728 7.75121 0.0226 C8.70422 0.02401 9.65724 0.02543 10.63913 0.02689 C13.69605 0.0325 16.7529 0.04506 19.8098 0.05775 C21.87686 0.06277 23.94391 0.06733 26.01097 0.07143 C31.08978 0.08248 36.16852 0.09975 41.2473 0.12025 C41.27416 2.09935 41.29363 4.07854 41.3098 6.05775 C41.3214 7.1599 41.333 8.26205 41.34496 9.3976 C41.2473 12.12025 41.2473 12.12025 40.2473 13.12025 C38.02875 13.20809 35.80741 13.2272 33.58714 13.21791 C33.25491 13.2172 33.25491 13.2172 31.57361 13.21362 C29.44396 13.20801 27.31442 13.19546 25.1848 13.18275 C23.74405 13.17774 22.30329 13.17318 20.86253 13.16908 C17.32409 13.15804 13.7857 13.14076 10.2473 13.12025 C10.2473 17.08025 10.2473 21.04025 10.2473 25.12025 C11.57495 25.11502 12.90261 25.10978 14.27049 25.10439 C19.17739 25.08634 24.08428 25.07482 28.9912 25.06532 C31.11848 25.06028 33.24576 25.05345 35.37303 25.04482 C38.42358 25.03274 41.47408 25.02702 44.52464 25.0226 C45.00329 25.02002 45.00329 25.02002 47.42551 25.00696 C47.86593 25.00692 47.86593 25.00692 50.09471 25.00673 C50.87415 25.00451 51.65358 25.00229 52.45663 25 C54.2473 25.12025 54.2473 25.12025 55.2473 26.12025 C55.34581 27.95141 55.37703 29.78645 55.3723 31.62025 C55.37359 32.12041 55.37359 32.12041 55.38011 34.6515 C55.2473 37.12025 55.2473 37.12025 54.2473 38.12025 C52.50347 38.21913 50.75564 38.24824 49.00902 38.24965 C47.89116 38.2528 46.7733 38.25595 45.62157 38.2592 C44.40493 38.25718 43.1883 38.25515 41.9348 38.25307 C40.69561 38.25402 39.45642 38.25498 38.17967 38.25597 C35.55342 38.25665 32.92725 38.25529 30.30101 38.25063 C26.92801 38.24493 23.55509 38.24821 20.1821 38.2542 C16.97466 38.25867 13.76724 38.25554 10.5598 38.25307 C9.34317 38.25509 8.12653 38.25712 6.87303 38.2592 C6.3141 38.25762 6.3141 38.25762 3.48558 38.24965 C2.49598 38.24885 1.50639 38.24806 0.4868 38.24724 C-1.7527 38.12025 -1.7527 38.12025 -2.7527 37.12025 C-2.85366 34.46569 -2.89241 31.8377 -2.88551 29.18275 C-2.88647 28.38748 -2.88743 27.59221 -2.88841 26.77284 C-2.88909 25.08819 -2.88724 23.40353 -2.88307 21.71889 C-2.87772 19.13126 -2.88302 16.54381 -2.88942 13.95619 C-2.88876 12.32338 -2.88748 10.69057 -2.88551 9.05775 C-2.88754 8.2786 -2.88956 7.49944 -2.89165 6.69667 C-2.86309 0.19644 -2.86309 0.19644 0 0 Z " fill="#1C2136" transform="translate(252.75270080566406,610.8797454833984)"/>
</svg>